<mxfile host="65bd71144e">
    <diagram id="wIMw1ctFVlQf0xmfBMv9" name="Page-1">
        <mxGraphModel dx="2693" dy="1893" grid="0" gridSize="10" guides="1" tooltips="1" connect="1" arrows="1" fold="1" page="1" pageScale="1" pageWidth="850" pageHeight="1100" background="#ffffff" math="0" shadow="0">
            <root>
                <mxCell id="0"/>
                <mxCell id="1" parent="0"/>
                <mxCell id="2" value="departments&lt;br&gt;" style="swimlane;fontStyle=1;childLayout=stackLayout;horizontal=1;startSize=26;horizontalStack=0;resizeParent=1;resizeParentMax=0;resizeLast=0;collapsible=1;marginBottom=0;html=1;arcSize=15;swimlaneFillColor=none;labelBackgroundColor=none;swimlaneLine=1;fillColor=#dae8fc;strokeColor=#000000;strokeWidth=2;fontColor=#000000;" parent="1" vertex="1">
                    <mxGeometry x="35" y="270" width="140" height="132" as="geometry">
                        <mxRectangle x="110" y="130" width="110" height="30" as="alternateBounds"/>
                    </mxGeometry>
                </mxCell>
                <mxCell id="3" value="# department_id" style="text;align=left;verticalAlign=top;spacingLeft=4;spacingRight=4;overflow=hidden;rotatable=0;points=[[0,0.5],[1,0.5]];portConstraint=eastwest;whiteSpace=wrap;html=1;swimlaneLine=1;fontStyle=1;labelBackgroundColor=none;fillColor=#dae8fc;strokeColor=#000000;strokeWidth=2;fontColor=#000000;" parent="2" vertex="1">
                    <mxGeometry y="26" width="140" height="26" as="geometry"/>
                </mxCell>
                <mxCell id="4" value="department_name" style="text;align=left;verticalAlign=top;spacingLeft=4;spacingRight=4;overflow=hidden;rotatable=0;points=[[0,0.5],[1,0.5]];portConstraint=eastwest;whiteSpace=wrap;html=1;swimlaneLine=1;fontStyle=1;labelBackgroundColor=none;fillColor=#dae8fc;strokeColor=#000000;strokeWidth=2;fontColor=#000000;" parent="2" vertex="1">
                    <mxGeometry y="52" width="140" height="28" as="geometry"/>
                </mxCell>
                <mxCell id="5" value="manager_id" style="text;align=left;verticalAlign=top;spacingLeft=4;spacingRight=4;overflow=hidden;rotatable=0;points=[[0,0.5],[1,0.5]];portConstraint=eastwest;whiteSpace=wrap;html=1;swimlaneLine=1;fontStyle=1;labelBackgroundColor=none;fillColor=#dae8fc;strokeColor=#000000;strokeWidth=2;fontColor=#000000;" parent="2" vertex="1">
                    <mxGeometry y="80" width="140" height="26" as="geometry"/>
                </mxCell>
                <mxCell id="7" value="location_id" style="text;align=left;verticalAlign=top;spacingLeft=4;spacingRight=4;overflow=hidden;rotatable=0;points=[[0,0.5],[1,0.5]];portConstraint=eastwest;whiteSpace=wrap;html=1;swimlaneLine=1;fontStyle=1;labelBackgroundColor=none;fillColor=#dae8fc;strokeColor=#000000;strokeWidth=2;fontColor=#000000;" vertex="1" parent="2">
                    <mxGeometry y="106" width="140" height="26" as="geometry"/>
                </mxCell>
                <mxCell id="8" value="locations" style="swimlane;fontStyle=1;childLayout=stackLayout;horizontal=1;startSize=26;horizontalStack=0;resizeParent=1;resizeParentMax=0;resizeLast=0;collapsible=1;marginBottom=0;html=1;arcSize=15;swimlaneFillColor=none;labelBackgroundColor=none;swimlaneLine=1;fillColor=#dae8fc;strokeColor=#000000;strokeWidth=2;fontColor=#000000;" vertex="1" parent="1">
                    <mxGeometry x="295" y="180" width="140" height="184" as="geometry">
                        <mxRectangle x="110" y="130" width="110" height="30" as="alternateBounds"/>
                    </mxGeometry>
                </mxCell>
                <mxCell id="9" value="# location_id" style="text;align=left;verticalAlign=top;spacingLeft=4;spacingRight=4;overflow=hidden;rotatable=0;points=[[0,0.5],[1,0.5]];portConstraint=eastwest;whiteSpace=wrap;html=1;swimlaneLine=1;fontStyle=1;labelBackgroundColor=none;fillColor=#dae8fc;strokeColor=#000000;strokeWidth=2;fontColor=#000000;" vertex="1" parent="8">
                    <mxGeometry y="26" width="140" height="26" as="geometry"/>
                </mxCell>
                <mxCell id="10" value="street_address" style="text;align=left;verticalAlign=top;spacingLeft=4;spacingRight=4;overflow=hidden;rotatable=0;points=[[0,0.5],[1,0.5]];portConstraint=eastwest;whiteSpace=wrap;html=1;swimlaneLine=1;fontStyle=1;labelBackgroundColor=none;fillColor=#dae8fc;strokeColor=#000000;strokeWidth=2;fontColor=#000000;" vertex="1" parent="8">
                    <mxGeometry y="52" width="140" height="28" as="geometry"/>
                </mxCell>
                <mxCell id="11" value="postal_code&amp;nbsp;" style="text;align=left;verticalAlign=top;spacingLeft=4;spacingRight=4;overflow=hidden;rotatable=0;points=[[0,0.5],[1,0.5]];portConstraint=eastwest;whiteSpace=wrap;html=1;swimlaneLine=1;fontStyle=1;labelBackgroundColor=none;fillColor=#dae8fc;strokeColor=#000000;strokeWidth=2;fontColor=#000000;" vertex="1" parent="8">
                    <mxGeometry y="80" width="140" height="26" as="geometry"/>
                </mxCell>
                <mxCell id="14" value="city" style="text;align=left;verticalAlign=top;spacingLeft=4;spacingRight=4;overflow=hidden;rotatable=0;points=[[0,0.5],[1,0.5]];portConstraint=eastwest;whiteSpace=wrap;html=1;swimlaneLine=1;fontStyle=1;labelBackgroundColor=none;fillColor=#dae8fc;strokeColor=#000000;strokeWidth=2;fontColor=#000000;" vertex="1" parent="8">
                    <mxGeometry y="106" width="140" height="26" as="geometry"/>
                </mxCell>
                <mxCell id="13" value="state_province" style="text;align=left;verticalAlign=top;spacingLeft=4;spacingRight=4;overflow=hidden;rotatable=0;points=[[0,0.5],[1,0.5]];portConstraint=eastwest;whiteSpace=wrap;html=1;swimlaneLine=1;fontStyle=1;labelBackgroundColor=none;fillColor=#dae8fc;strokeColor=#000000;strokeWidth=2;fontColor=#000000;" vertex="1" parent="8">
                    <mxGeometry y="132" width="140" height="26" as="geometry"/>
                </mxCell>
                <mxCell id="12" value="coutry_id" style="text;align=left;verticalAlign=top;spacingLeft=4;spacingRight=4;overflow=hidden;rotatable=0;points=[[0,0.5],[1,0.5]];portConstraint=eastwest;whiteSpace=wrap;html=1;swimlaneLine=1;fontStyle=1;labelBackgroundColor=none;fillColor=#dae8fc;strokeColor=#000000;strokeWidth=2;fontColor=#000000;" vertex="1" parent="8">
                    <mxGeometry y="158" width="140" height="26" as="geometry"/>
                </mxCell>
                <mxCell id="15" value="job_history" style="swimlane;fontStyle=1;childLayout=stackLayout;horizontal=1;startSize=26;horizontalStack=0;resizeParent=1;resizeParentMax=0;resizeLast=0;collapsible=1;marginBottom=0;html=1;arcSize=15;swimlaneFillColor=none;labelBackgroundColor=none;swimlaneLine=1;fillColor=#dae8fc;strokeColor=#000000;strokeWidth=2;fontColor=#000000;" vertex="1" parent="1">
                    <mxGeometry x="25" y="502" width="140" height="158" as="geometry">
                        <mxRectangle x="110" y="130" width="110" height="30" as="alternateBounds"/>
                    </mxGeometry>
                </mxCell>
                <mxCell id="16" value="# employee_id" style="text;align=left;verticalAlign=top;spacingLeft=4;spacingRight=4;overflow=hidden;rotatable=0;points=[[0,0.5],[1,0.5]];portConstraint=eastwest;whiteSpace=wrap;html=1;swimlaneLine=1;fontStyle=1;labelBackgroundColor=none;fillColor=#dae8fc;strokeColor=#000000;strokeWidth=2;fontColor=#000000;" vertex="1" parent="15">
                    <mxGeometry y="26" width="140" height="26" as="geometry"/>
                </mxCell>
                <mxCell id="17" value="# start_date" style="text;align=left;verticalAlign=top;spacingLeft=4;spacingRight=4;overflow=hidden;rotatable=0;points=[[0,0.5],[1,0.5]];portConstraint=eastwest;whiteSpace=wrap;html=1;swimlaneLine=1;fontStyle=1;labelBackgroundColor=none;fillColor=#dae8fc;strokeColor=#000000;strokeWidth=2;fontColor=#000000;" vertex="1" parent="15">
                    <mxGeometry y="52" width="140" height="28" as="geometry"/>
                </mxCell>
                <mxCell id="18" value="end_date" style="text;align=left;verticalAlign=top;spacingLeft=4;spacingRight=4;overflow=hidden;rotatable=0;points=[[0,0.5],[1,0.5]];portConstraint=eastwest;whiteSpace=wrap;html=1;swimlaneLine=1;fontStyle=1;labelBackgroundColor=none;fillColor=#dae8fc;strokeColor=#000000;strokeWidth=2;fontColor=#000000;" vertex="1" parent="15">
                    <mxGeometry y="80" width="140" height="26" as="geometry"/>
                </mxCell>
                <mxCell id="19" value="job_id" style="text;align=left;verticalAlign=top;spacingLeft=4;spacingRight=4;overflow=hidden;rotatable=0;points=[[0,0.5],[1,0.5]];portConstraint=eastwest;whiteSpace=wrap;html=1;swimlaneLine=1;fontStyle=1;labelBackgroundColor=none;fillColor=#dae8fc;strokeColor=#000000;strokeWidth=2;fontColor=#000000;" vertex="1" parent="15">
                    <mxGeometry y="106" width="140" height="26" as="geometry"/>
                </mxCell>
                <mxCell id="25" value="department_id" style="text;align=left;verticalAlign=top;spacingLeft=4;spacingRight=4;overflow=hidden;rotatable=0;points=[[0,0.5],[1,0.5]];portConstraint=eastwest;whiteSpace=wrap;html=1;swimlaneLine=1;fontStyle=1;labelBackgroundColor=none;fillColor=#dae8fc;strokeColor=#000000;strokeWidth=2;fontColor=#000000;" vertex="1" parent="15">
                    <mxGeometry y="132" width="140" height="26" as="geometry"/>
                </mxCell>
                <mxCell id="26" value="employees" style="swimlane;fontStyle=1;childLayout=stackLayout;horizontal=1;startSize=30;horizontalStack=0;resizeParent=1;resizeParentMax=0;resizeLast=0;collapsible=1;marginBottom=0;whiteSpace=wrap;html=1;swimlaneLine=1;labelBackgroundColor=none;fillColor=#dae8fc;strokeColor=#000000;strokeWidth=2;fontColor=#000000;" vertex="1" parent="1">
                    <mxGeometry x="315" y="530" width="140" height="360" as="geometry"/>
                </mxCell>
                <mxCell id="27" value="# employee_id&amp;nbsp;" style="text;align=left;verticalAlign=middle;spacingLeft=4;spacingRight=4;overflow=hidden;points=[[0,0.5],[1,0.5]];portConstraint=eastwest;rotatable=0;whiteSpace=wrap;html=1;fontStyle=1;swimlaneLine=1;labelBackgroundColor=none;fillColor=#dae8fc;strokeColor=#000000;strokeWidth=2;fontColor=#000000;" vertex="1" parent="26">
                    <mxGeometry y="30" width="140" height="30" as="geometry"/>
                </mxCell>
                <mxCell id="28" value="first_name" style="text;align=left;verticalAlign=middle;spacingLeft=4;spacingRight=4;overflow=hidden;points=[[0,0.5],[1,0.5]];portConstraint=eastwest;rotatable=0;whiteSpace=wrap;html=1;swimlaneLine=1;fontStyle=1;labelBackgroundColor=none;fillColor=#dae8fc;strokeColor=#000000;strokeWidth=2;fontColor=#000000;" vertex="1" parent="26">
                    <mxGeometry y="60" width="140" height="30" as="geometry"/>
                </mxCell>
                <mxCell id="29" value="last_name" style="text;align=left;verticalAlign=middle;spacingLeft=4;spacingRight=4;overflow=hidden;points=[[0,0.5],[1,0.5]];portConstraint=eastwest;rotatable=0;whiteSpace=wrap;html=1;swimlaneLine=1;fontStyle=1;labelBackgroundColor=none;fillColor=#dae8fc;strokeColor=#000000;strokeWidth=2;fontColor=#000000;" vertex="1" parent="26">
                    <mxGeometry y="90" width="140" height="30" as="geometry"/>
                </mxCell>
                <mxCell id="30" value="email" style="text;align=left;verticalAlign=middle;spacingLeft=4;spacingRight=4;overflow=hidden;points=[[0,0.5],[1,0.5]];portConstraint=eastwest;rotatable=0;whiteSpace=wrap;html=1;swimlaneLine=1;fontStyle=1;labelBackgroundColor=none;fillColor=#dae8fc;strokeColor=#000000;strokeWidth=2;fontColor=#000000;" vertex="1" parent="26">
                    <mxGeometry y="120" width="140" height="30" as="geometry"/>
                </mxCell>
                <mxCell id="31" value="phone_number" style="text;align=left;verticalAlign=middle;spacingLeft=4;spacingRight=4;overflow=hidden;points=[[0,0.5],[1,0.5]];portConstraint=eastwest;rotatable=0;whiteSpace=wrap;html=1;swimlaneLine=1;fontStyle=1;labelBackgroundColor=none;fillColor=#dae8fc;strokeColor=#000000;strokeWidth=2;fontColor=#000000;" vertex="1" parent="26">
                    <mxGeometry y="150" width="140" height="30" as="geometry"/>
                </mxCell>
                <mxCell id="32" value="hire_date" style="text;align=left;verticalAlign=middle;spacingLeft=4;spacingRight=4;overflow=hidden;points=[[0,0.5],[1,0.5]];portConstraint=eastwest;rotatable=0;whiteSpace=wrap;html=1;swimlaneLine=1;fontStyle=1;labelBackgroundColor=none;fillColor=#dae8fc;strokeColor=#000000;strokeWidth=2;fontColor=#000000;" vertex="1" parent="26">
                    <mxGeometry y="180" width="140" height="30" as="geometry"/>
                </mxCell>
                <mxCell id="33" value="job_id" style="text;align=left;verticalAlign=middle;spacingLeft=4;spacingRight=4;overflow=hidden;points=[[0,0.5],[1,0.5]];portConstraint=eastwest;rotatable=0;whiteSpace=wrap;html=1;swimlaneLine=1;fontStyle=1;labelBackgroundColor=none;fillColor=#dae8fc;strokeColor=#000000;strokeWidth=2;fontColor=#000000;" vertex="1" parent="26">
                    <mxGeometry y="210" width="140" height="30" as="geometry"/>
                </mxCell>
                <mxCell id="34" value="salary" style="text;align=left;verticalAlign=middle;spacingLeft=4;spacingRight=4;overflow=hidden;points=[[0,0.5],[1,0.5]];portConstraint=eastwest;rotatable=0;whiteSpace=wrap;html=1;swimlaneLine=1;fontStyle=1;labelBackgroundColor=none;fillColor=#dae8fc;strokeColor=#000000;strokeWidth=2;fontColor=#000000;" vertex="1" parent="26">
                    <mxGeometry y="240" width="140" height="30" as="geometry"/>
                </mxCell>
                <mxCell id="35" value="commission_pct" style="text;align=left;verticalAlign=middle;spacingLeft=4;spacingRight=4;overflow=hidden;points=[[0,0.5],[1,0.5]];portConstraint=eastwest;rotatable=0;whiteSpace=wrap;html=1;swimlaneLine=1;fontStyle=1;labelBackgroundColor=none;fillColor=#dae8fc;strokeColor=#000000;strokeWidth=2;fontColor=#000000;" vertex="1" parent="26">
                    <mxGeometry y="270" width="140" height="30" as="geometry"/>
                </mxCell>
                <mxCell id="36" value="manager_id" style="text;align=left;verticalAlign=middle;spacingLeft=4;spacingRight=4;overflow=hidden;points=[[0,0.5],[1,0.5]];portConstraint=eastwest;rotatable=0;whiteSpace=wrap;html=1;swimlaneLine=1;fontStyle=1;labelBackgroundColor=none;fillColor=#dae8fc;strokeColor=#000000;strokeWidth=2;fontColor=#000000;" vertex="1" parent="26">
                    <mxGeometry y="300" width="140" height="30" as="geometry"/>
                </mxCell>
                <mxCell id="37" value="department_id" style="text;align=left;verticalAlign=middle;spacingLeft=4;spacingRight=4;overflow=hidden;points=[[0,0.5],[1,0.5]];portConstraint=eastwest;rotatable=0;whiteSpace=wrap;html=1;swimlaneLine=1;fontStyle=1;labelBackgroundColor=none;fillColor=#dae8fc;strokeColor=#000000;strokeWidth=2;fontColor=#000000;" vertex="1" parent="26">
                    <mxGeometry y="330" width="140" height="30" as="geometry"/>
                </mxCell>
                <mxCell id="38" value="countries" style="swimlane;fontStyle=1;childLayout=stackLayout;horizontal=1;startSize=30;horizontalStack=0;resizeParent=1;resizeParentMax=0;resizeLast=0;collapsible=1;marginBottom=0;whiteSpace=wrap;html=1;swimlaneLine=1;labelBackgroundColor=none;fillColor=#dae8fc;strokeColor=#000000;strokeWidth=2;fontColor=#000000;" vertex="1" parent="1">
                    <mxGeometry x="495" y="235" width="140" height="120" as="geometry"/>
                </mxCell>
                <mxCell id="39" value="# country_id" style="text;align=left;verticalAlign=middle;spacingLeft=4;spacingRight=4;overflow=hidden;points=[[0,0.5],[1,0.5]];portConstraint=eastwest;rotatable=0;whiteSpace=wrap;html=1;swimlaneLine=1;fontStyle=1;labelBackgroundColor=none;fillColor=#dae8fc;strokeColor=#000000;strokeWidth=2;fontColor=#000000;" vertex="1" parent="38">
                    <mxGeometry y="30" width="140" height="30" as="geometry"/>
                </mxCell>
                <mxCell id="40" value="country_name" style="text;align=left;verticalAlign=middle;spacingLeft=4;spacingRight=4;overflow=hidden;points=[[0,0.5],[1,0.5]];portConstraint=eastwest;rotatable=0;whiteSpace=wrap;html=1;swimlaneLine=1;fontStyle=1;labelBackgroundColor=none;fillColor=#dae8fc;strokeColor=#000000;strokeWidth=2;fontColor=#000000;" vertex="1" parent="38">
                    <mxGeometry y="60" width="140" height="30" as="geometry"/>
                </mxCell>
                <mxCell id="41" value="region_id" style="text;align=left;verticalAlign=middle;spacingLeft=4;spacingRight=4;overflow=hidden;points=[[0,0.5],[1,0.5]];portConstraint=eastwest;rotatable=0;whiteSpace=wrap;html=1;swimlaneLine=1;fontStyle=1;labelBackgroundColor=none;fillColor=#dae8fc;strokeColor=#000000;strokeWidth=2;fontColor=#000000;" vertex="1" parent="38">
                    <mxGeometry y="90" width="140" height="30" as="geometry"/>
                </mxCell>
                <mxCell id="43" value="regions" style="swimlane;fontStyle=1;childLayout=stackLayout;horizontal=1;startSize=30;horizontalStack=0;resizeParent=1;resizeParentMax=0;resizeLast=0;collapsible=1;marginBottom=0;whiteSpace=wrap;html=1;swimlaneLine=1;labelBackgroundColor=none;fillColor=#dae8fc;strokeColor=#000000;strokeWidth=2;fontColor=#000000;" vertex="1" parent="1">
                    <mxGeometry x="685" y="320" width="140" height="90" as="geometry"/>
                </mxCell>
                <mxCell id="45" value="# region_id" style="text;align=left;verticalAlign=middle;spacingLeft=4;spacingRight=4;overflow=hidden;points=[[0,0.5],[1,0.5]];portConstraint=eastwest;rotatable=0;whiteSpace=wrap;html=1;swimlaneLine=1;fontStyle=1;labelBackgroundColor=none;fillColor=#dae8fc;strokeColor=#000000;strokeWidth=2;fontColor=#000000;" vertex="1" parent="43">
                    <mxGeometry y="30" width="140" height="30" as="geometry"/>
                </mxCell>
                <mxCell id="44" value="region_name" style="text;align=left;verticalAlign=middle;spacingLeft=4;spacingRight=4;overflow=hidden;points=[[0,0.5],[1,0.5]];portConstraint=eastwest;rotatable=0;whiteSpace=wrap;html=1;swimlaneLine=1;fontStyle=1;labelBackgroundColor=none;fillColor=#dae8fc;strokeColor=#000000;strokeWidth=2;fontColor=#000000;" vertex="1" parent="43">
                    <mxGeometry y="60" width="140" height="30" as="geometry"/>
                </mxCell>
                <mxCell id="47" value="jobs" style="swimlane;fontStyle=1;childLayout=stackLayout;horizontal=1;startSize=30;horizontalStack=0;resizeParent=1;resizeParentMax=0;resizeLast=0;collapsible=1;marginBottom=0;whiteSpace=wrap;html=1;swimlaneLine=1;labelBackgroundColor=none;fillColor=#dae8fc;strokeColor=#000000;strokeWidth=2;fontColor=#000000;" vertex="1" parent="1">
                    <mxGeometry x="495" y="450" width="140" height="150" as="geometry"/>
                </mxCell>
                <mxCell id="48" value="# job_id" style="text;align=left;verticalAlign=middle;spacingLeft=4;spacingRight=4;overflow=hidden;points=[[0,0.5],[1,0.5]];portConstraint=eastwest;rotatable=0;whiteSpace=wrap;html=1;swimlaneLine=1;fontStyle=1;labelBackgroundColor=none;fillColor=#dae8fc;strokeColor=#000000;strokeWidth=2;fontColor=#000000;" vertex="1" parent="47">
                    <mxGeometry y="30" width="140" height="30" as="geometry"/>
                </mxCell>
                <mxCell id="49" value="job_title" style="text;align=left;verticalAlign=middle;spacingLeft=4;spacingRight=4;overflow=hidden;points=[[0,0.5],[1,0.5]];portConstraint=eastwest;rotatable=0;whiteSpace=wrap;html=1;swimlaneLine=1;fontStyle=1;labelBackgroundColor=none;fillColor=#dae8fc;strokeColor=#000000;strokeWidth=2;fontColor=#000000;" vertex="1" parent="47">
                    <mxGeometry y="60" width="140" height="30" as="geometry"/>
                </mxCell>
                <mxCell id="50" value="min_salary" style="text;align=left;verticalAlign=middle;spacingLeft=4;spacingRight=4;overflow=hidden;points=[[0,0.5],[1,0.5]];portConstraint=eastwest;rotatable=0;whiteSpace=wrap;html=1;swimlaneLine=1;fontStyle=1;labelBackgroundColor=none;fillColor=#dae8fc;strokeColor=#000000;strokeWidth=2;fontColor=#000000;" vertex="1" parent="47">
                    <mxGeometry y="90" width="140" height="30" as="geometry"/>
                </mxCell>
                <mxCell id="51" value="max_salary" style="text;align=left;verticalAlign=middle;spacingLeft=4;spacingRight=4;overflow=hidden;points=[[0,0.5],[1,0.5]];portConstraint=eastwest;rotatable=0;whiteSpace=wrap;html=1;swimlaneLine=1;fontStyle=1;labelBackgroundColor=none;fillColor=#dae8fc;strokeColor=#000000;strokeWidth=2;fontColor=#000000;" vertex="1" parent="47">
                    <mxGeometry y="120" width="140" height="30" as="geometry"/>
                </mxCell>
                <mxCell id="52" value="job_grades" style="swimlane;fontStyle=1;childLayout=stackLayout;horizontal=1;startSize=30;horizontalStack=0;resizeParent=1;resizeParentMax=0;resizeLast=0;collapsible=1;marginBottom=0;whiteSpace=wrap;html=1;swimlaneLine=1;labelBackgroundColor=none;fillColor=#dae8fc;strokeColor=#000000;strokeWidth=2;fontColor=#000000;" vertex="1" parent="1">
                    <mxGeometry x="595" y="680" width="140" height="120" as="geometry"/>
                </mxCell>
                <mxCell id="53" value="# grade_level" style="text;align=left;verticalAlign=middle;spacingLeft=4;spacingRight=4;overflow=hidden;points=[[0,0.5],[1,0.5]];portConstraint=eastwest;rotatable=0;whiteSpace=wrap;html=1;swimlaneLine=1;fontStyle=1;labelBackgroundColor=none;fillColor=#dae8fc;strokeColor=#000000;strokeWidth=2;fontColor=#000000;" vertex="1" parent="52">
                    <mxGeometry y="30" width="140" height="30" as="geometry"/>
                </mxCell>
                <mxCell id="55" value="lowerest_sal" style="text;align=left;verticalAlign=middle;spacingLeft=4;spacingRight=4;overflow=hidden;points=[[0,0.5],[1,0.5]];portConstraint=eastwest;rotatable=0;whiteSpace=wrap;html=1;swimlaneLine=1;fontStyle=1;labelBackgroundColor=none;fillColor=#dae8fc;strokeColor=#000000;strokeWidth=2;fontColor=#000000;" vertex="1" parent="52">
                    <mxGeometry y="60" width="140" height="30" as="geometry"/>
                </mxCell>
                <mxCell id="54" value="highest_sal" style="text;align=left;verticalAlign=middle;spacingLeft=4;spacingRight=4;overflow=hidden;points=[[0,0.5],[1,0.5]];portConstraint=eastwest;rotatable=0;whiteSpace=wrap;html=1;swimlaneLine=1;fontStyle=1;labelBackgroundColor=none;fillColor=#dae8fc;strokeColor=#000000;strokeWidth=2;fontColor=#000000;" vertex="1" parent="52">
                    <mxGeometry y="90" width="140" height="30" as="geometry"/>
                </mxCell>
                <mxCell id="57" style="edgeStyle=orthogonalEdgeStyle;html=1;entryX=1;entryY=0.5;entryDx=0;entryDy=0;exitX=0;exitY=0.5;exitDx=0;exitDy=0;endArrow=none;endFill=0;swimlaneLine=1;fontStyle=1;fontColor=#000000;labelBackgroundColor=none;fillColor=#dae8fc;strokeColor=#000000;strokeWidth=2;" edge="1" parent="1" source="27" target="16">
                    <mxGeometry relative="1" as="geometry">
                        <Array as="points">
                            <mxPoint x="225" y="575"/>
                            <mxPoint x="225" y="541"/>
                        </Array>
                    </mxGeometry>
                </mxCell>
                <mxCell id="59" style="edgeStyle=orthogonalEdgeStyle;html=1;exitX=0;exitY=0.5;exitDx=0;exitDy=0;entryX=1;entryY=0.5;entryDx=0;entryDy=0;endArrow=none;endFill=0;swimlaneLine=1;fontStyle=1;fontColor=#000000;labelBackgroundColor=none;fillColor=#dae8fc;strokeColor=#000000;strokeWidth=2;" edge="1" parent="1" source="37" target="3">
                    <mxGeometry relative="1" as="geometry"/>
                </mxCell>
                <mxCell id="60" style="edgeStyle=orthogonalEdgeStyle;html=1;exitX=1;exitY=0.5;exitDx=0;exitDy=0;entryX=0.997;entryY=0.559;entryDx=0;entryDy=0;endArrow=none;endFill=0;entryPerimeter=0;swimlaneLine=1;fontStyle=1;fontColor=#000000;labelBackgroundColor=none;fillColor=#dae8fc;strokeColor=#000000;strokeWidth=2;" edge="1" parent="1" source="25" target="3">
                    <mxGeometry relative="1" as="geometry">
                        <Array as="points">
                            <mxPoint x="215" y="647"/>
                            <mxPoint x="215" y="310"/>
                            <mxPoint x="175" y="310"/>
                        </Array>
                    </mxGeometry>
                </mxCell>
                <mxCell id="63" style="edgeStyle=orthogonalEdgeStyle;html=1;entryX=1;entryY=0.5;entryDx=0;entryDy=0;endArrow=none;endFill=0;swimlaneLine=1;fontStyle=1;fontColor=#000000;labelBackgroundColor=none;fillColor=#dae8fc;strokeColor=#000000;strokeWidth=2;" edge="1" parent="1" source="48" target="19">
                    <mxGeometry relative="1" as="geometry">
                        <Array as="points">
                            <mxPoint x="265" y="495"/>
                            <mxPoint x="265" y="621"/>
                        </Array>
                    </mxGeometry>
                </mxCell>
                <mxCell id="64" style="edgeStyle=orthogonalEdgeStyle;html=1;entryX=1;entryY=0.5;entryDx=0;entryDy=0;endArrow=none;endFill=0;swimlaneLine=1;fontStyle=1;fontColor=#000000;labelBackgroundColor=none;fillColor=#dae8fc;strokeColor=#000000;strokeWidth=2;" edge="1" parent="1" source="9" target="7">
                    <mxGeometry relative="1" as="geometry">
                        <Array as="points">
                            <mxPoint x="265" y="219"/>
                            <mxPoint x="265" y="389"/>
                        </Array>
                    </mxGeometry>
                </mxCell>
                <mxCell id="66" style="edgeStyle=orthogonalEdgeStyle;html=1;entryX=1;entryY=0.5;entryDx=0;entryDy=0;endArrow=none;endFill=0;swimlaneLine=1;fontStyle=1;fontColor=#000000;labelBackgroundColor=none;fillColor=#dae8fc;strokeColor=#000000;strokeWidth=2;" edge="1" parent="1" source="48" target="33">
                    <mxGeometry relative="1" as="geometry"/>
                </mxCell>
                <mxCell id="67" style="edgeStyle=orthogonalEdgeStyle;html=1;exitX=0;exitY=0.5;exitDx=0;exitDy=0;entryX=1;entryY=0.5;entryDx=0;entryDy=0;endArrow=none;endFill=0;swimlaneLine=1;fontStyle=1;fontColor=#000000;labelBackgroundColor=none;fillColor=#dae8fc;strokeColor=#000000;strokeWidth=2;" edge="1" parent="1" source="39" target="12">
                    <mxGeometry relative="1" as="geometry"/>
                </mxCell>
                <mxCell id="68" style="edgeStyle=orthogonalEdgeStyle;html=1;entryX=1;entryY=0.5;entryDx=0;entryDy=0;endArrow=none;endFill=0;swimlaneLine=1;fontStyle=1;fontColor=#000000;labelBackgroundColor=none;fillColor=#dae8fc;strokeColor=#000000;strokeWidth=2;" edge="1" parent="1" source="45" target="41">
                    <mxGeometry relative="1" as="geometry"/>
                </mxCell>
            </root>
        </mxGraphModel>
    </diagram>
</mxfile>